<mxfile host="Electron" modified="2024-01-02T15:04:52.321Z" agent="Mozilla/5.0 (Windows NT 10.0; Win64; x64) AppleWebKit/537.36 (KHTML, like Gecko) draw.io/22.1.16 Chrome/120.0.6099.109 Electron/28.1.0 Safari/537.36" etag="-ifHLOIBNs6j1qp01PfD" version="22.1.16" type="device">
  <diagram name="Page-1" id="sysB5nV6v4XMdbFvkmyr">
    <mxGraphModel dx="1022" dy="640" grid="1" gridSize="10" guides="1" tooltips="1" connect="1" arrows="1" fold="1" page="1" pageScale="1" pageWidth="850" pageHeight="1100" math="0" shadow="0">
      <root>
        <mxCell id="0" />
        <mxCell id="1" parent="0" />
        <mxCell id="zzQwX9uNAsdhgC4uBKg5-3" value="" style="edgeStyle=orthogonalEdgeStyle;rounded=0;orthogonalLoop=1;jettySize=auto;html=1;" parent="1" source="zzQwX9uNAsdhgC4uBKg5-1" target="zzQwX9uNAsdhgC4uBKg5-2" edge="1">
          <mxGeometry relative="1" as="geometry" />
        </mxCell>
        <mxCell id="zzQwX9uNAsdhgC4uBKg5-1" value="&lt;font style=&quot;font-size: 18px;&quot;&gt;Start&lt;/font&gt;" style="ellipse;whiteSpace=wrap;html=1;" parent="1" vertex="1">
          <mxGeometry x="290" y="260" width="230" height="130" as="geometry" />
        </mxCell>
        <mxCell id="zzQwX9uNAsdhgC4uBKg5-9" value="" style="edgeStyle=orthogonalEdgeStyle;rounded=0;orthogonalLoop=1;jettySize=auto;html=1;" parent="1" source="zzQwX9uNAsdhgC4uBKg5-2" target="zzQwX9uNAsdhgC4uBKg5-8" edge="1">
          <mxGeometry relative="1" as="geometry" />
        </mxCell>
        <mxCell id="zzQwX9uNAsdhgC4uBKg5-2" value="&lt;font style=&quot;font-size: 18px;&quot;&gt;input number&lt;/font&gt;" style="shape=parallelogram;perimeter=parallelogramPerimeter;whiteSpace=wrap;html=1;fixedSize=1;" parent="1" vertex="1">
          <mxGeometry x="302.5" y="508" width="205" height="85" as="geometry" />
        </mxCell>
        <mxCell id="zzQwX9uNAsdhgC4uBKg5-12" value="" style="edgeStyle=orthogonalEdgeStyle;rounded=0;orthogonalLoop=1;jettySize=auto;html=1;" parent="1" source="zzQwX9uNAsdhgC4uBKg5-4" target="zzQwX9uNAsdhgC4uBKg5-11" edge="1">
          <mxGeometry relative="1" as="geometry" />
        </mxCell>
        <mxCell id="MoxlOCIDibAjF51HgCb7-2" style="edgeStyle=orthogonalEdgeStyle;rounded=0;orthogonalLoop=1;jettySize=auto;html=1;exitX=0;exitY=0.5;exitDx=0;exitDy=0;entryX=0.5;entryY=0;entryDx=0;entryDy=0;" edge="1" parent="1" source="zzQwX9uNAsdhgC4uBKg5-4" target="zzQwX9uNAsdhgC4uBKg5-16">
          <mxGeometry relative="1" as="geometry" />
        </mxCell>
        <mxCell id="zzQwX9uNAsdhgC4uBKg5-4" value="&lt;font style=&quot;font-size: 18px;&quot;&gt;i &amp;lt;=10&lt;/font&gt;" style="rhombus;whiteSpace=wrap;html=1;" parent="1" vertex="1">
          <mxGeometry x="270" y="860" width="270" height="164.5" as="geometry" />
        </mxCell>
        <mxCell id="zzQwX9uNAsdhgC4uBKg5-10" value="" style="edgeStyle=orthogonalEdgeStyle;rounded=0;orthogonalLoop=1;jettySize=auto;html=1;" parent="1" source="zzQwX9uNAsdhgC4uBKg5-8" target="zzQwX9uNAsdhgC4uBKg5-4" edge="1">
          <mxGeometry relative="1" as="geometry" />
        </mxCell>
        <mxCell id="zzQwX9uNAsdhgC4uBKg5-8" value="&lt;font style=&quot;font-size: 18px;&quot;&gt;i = 1&lt;/font&gt;" style="whiteSpace=wrap;html=1;" parent="1" vertex="1">
          <mxGeometry x="345" y="685.5" width="120" height="60" as="geometry" />
        </mxCell>
        <mxCell id="zzQwX9uNAsdhgC4uBKg5-15" value="" style="edgeStyle=orthogonalEdgeStyle;rounded=0;orthogonalLoop=1;jettySize=auto;html=1;" parent="1" source="zzQwX9uNAsdhgC4uBKg5-11" target="zzQwX9uNAsdhgC4uBKg5-14" edge="1">
          <mxGeometry relative="1" as="geometry" />
        </mxCell>
        <mxCell id="zzQwX9uNAsdhgC4uBKg5-11" value="&lt;font style=&quot;font-size: 18px;&quot;&gt;table = i x number&lt;br&gt;&lt;/font&gt;" style="whiteSpace=wrap;html=1;" parent="1" vertex="1">
          <mxGeometry x="680" y="887.25" width="230" height="110" as="geometry" />
        </mxCell>
        <mxCell id="zzQwX9uNAsdhgC4uBKg5-13" value="&lt;font style=&quot;font-size: 18px;&quot;&gt;True&lt;/font&gt;" style="text;html=1;align=center;verticalAlign=middle;resizable=0;points=[];autosize=1;strokeColor=none;fillColor=none;" parent="1" vertex="1">
          <mxGeometry x="580" y="903" width="60" height="40" as="geometry" />
        </mxCell>
        <mxCell id="MoxlOCIDibAjF51HgCb7-4" value="" style="edgeStyle=orthogonalEdgeStyle;rounded=0;orthogonalLoop=1;jettySize=auto;html=1;" edge="1" parent="1" source="zzQwX9uNAsdhgC4uBKg5-14" target="MoxlOCIDibAjF51HgCb7-3">
          <mxGeometry relative="1" as="geometry" />
        </mxCell>
        <mxCell id="zzQwX9uNAsdhgC4uBKg5-14" value="&lt;font style=&quot;font-size: 18px;&quot;&gt;output i x number = table&lt;/font&gt;" style="shape=parallelogram;perimeter=parallelogramPerimeter;whiteSpace=wrap;html=1;fixedSize=1;" parent="1" vertex="1">
          <mxGeometry x="677.5" y="1191.53" width="235" height="90.82" as="geometry" />
        </mxCell>
        <mxCell id="zzQwX9uNAsdhgC4uBKg5-16" value="&lt;font style=&quot;font-size: 18px;&quot;&gt;End&lt;/font&gt;" style="ellipse;whiteSpace=wrap;html=1;" parent="1" vertex="1">
          <mxGeometry x="40" y="1460" width="217.5" height="146.12" as="geometry" />
        </mxCell>
        <mxCell id="zzQwX9uNAsdhgC4uBKg5-19" value="&lt;font style=&quot;font-size: 18px;&quot;&gt;False&lt;/font&gt;" style="text;html=1;align=center;verticalAlign=middle;resizable=0;points=[];autosize=1;strokeColor=none;fillColor=none;" parent="1" vertex="1">
          <mxGeometry x="100" y="943" width="70" height="40" as="geometry" />
        </mxCell>
        <mxCell id="MoxlOCIDibAjF51HgCb7-5" style="edgeStyle=orthogonalEdgeStyle;rounded=0;orthogonalLoop=1;jettySize=auto;html=1;entryX=0.5;entryY=1;entryDx=0;entryDy=0;" edge="1" parent="1" source="MoxlOCIDibAjF51HgCb7-3" target="zzQwX9uNAsdhgC4uBKg5-4">
          <mxGeometry relative="1" as="geometry" />
        </mxCell>
        <mxCell id="MoxlOCIDibAjF51HgCb7-3" value="&lt;font style=&quot;font-size: 18px;&quot;&gt;i = i + 1&lt;/font&gt;" style="whiteSpace=wrap;html=1;" vertex="1" parent="1">
          <mxGeometry x="735" y="1377.76" width="120" height="60" as="geometry" />
        </mxCell>
      </root>
    </mxGraphModel>
  </diagram>
</mxfile>
